<svg xmlns="http://www.w3.org/2000/svg" xmlns:xlink="http://www.w3.org/1999/xlink" viewBox="0 0 1920 1079">
    <defs>
        <style>
            .cls-41 {
            clip-path: url(#clip-Web_1920_12);
            }

            .cls-42 {
            fill: url(#linear-gradient);
            }

            .cls-43 {
            opacity: 0.17;
            fill: url(#linear-gradient-2);
            }

            .cls-44, .cls-45 {
            opacity: 0.11;
            }

            .cls-44 {
            fill: url(#linear-gradient-3);
            }

            .cls-45 {
            fill: url(#linear-gradient-4);
            }

            .cls-bg {
            fill: rgba(0, 0, 0, 0);
            }
        </style>
        <linearGradient id="linear-gradient" x1="0.348" y1="0.26" x2="0.896" y2="1.067"
                        gradientUnits="objectBoundingBox">
            <stop offset="0" stop-color="#3d64c2"/>
            <stop offset="1" stop-color="#030396"/>
        </linearGradient>
        <linearGradient id="linear-gradient-2" x1="0.5" x2="0.5" y2="1" gradientUnits="objectBoundingBox">
            <stop offset="0" stop-color="#fff"/>
            <stop offset="0.589" stop-color="#e2e4ff" stop-opacity="0.302"/>
        </linearGradient>
        <linearGradient id="linear-gradient-3" x1="0.5" y1="1" x2="0.5" y2="0" xlink:href="#linear-gradient-2"/>
        <linearGradient id="linear-gradient-4" x1="0.5" y1="0" x2="0.5" y2="1" xlink:href="#linear-gradient-2"/>
        <clipPath id="clip-Web_1920_12">
            <rect width="1920" height="1079"/>
        </clipPath>
    </defs>
    <g id="Web_1920_12" data-name="Web 1920 – 12" class="cls-41">
        <rect class="cls-bg" width="1920" height="1079"/>
        <path id="Soustraction_2" data-name="Soustraction 2" class="cls-42"
              d="M564.5-1172.183a403.172,403.172,0,0,1-44.1-2.435,418.938,418.938,0,0,1-45.918-7.711,455.48,455.48,0,0,1-47.749-13.592A515.681,515.681,0,0,1,377.105-1216a438.592,438.592,0,0,1-44-23.541,385.619,385.619,0,0,1-37.93-26.439,326.75,326.75,0,0,1-58.359-59.352,273.485,273.485,0,0,1-36.216-64.282,233.885,233.885,0,0,1-15.5-64.77,202.374,202.374,0,0,1,1.069-45.99,175.575,175.575,0,0,1,11.2-41.946,152.518,152.518,0,0,1,20.747-36.056,138.589,138.589,0,0,1,29.693-28.323c35.963-25.242,64.051-50.039,83.485-73.7a167.026,167.026,0,0,0,20.651-31c4.638-9.328,7.447-18.148,8.35-26.215a42.971,42.971,0,0,0-1.193-16.771,33.1,33.1,0,0,0-7.294-13.118c-3.836-4.236-9.868-8.138-18.981-12.281-8.127-3.694-17.732-7.137-27.9-10.783l-.011,0-.031-.011-.007,0-.014-.005c-9.526-3.414-19.376-6.945-29-11.023a167.8,167.8,0,0,1-27.242-14.161,93.154,93.154,0,0,1-11.522-8.921,67.136,67.136,0,0,1-9.358-10.5,55.007,55.007,0,0,1-6.62-12.348,55.44,55.44,0,0,1-3.309-14.46c-.762-8.126-1.364-16.153-1.947-23.915l-.011-.152c-1.016-13.549-1.975-26.346-3.654-38.533-1.886-13.7-4.4-24.526-7.9-34.079-8.537-23.259-23.307-38.931-46.483-49.32-2.308-1.035-4.807-2.139-7.453-3.307l-.131-.058-.263-.116-.131-.058c-10.161-4.486-22.808-10.07-36.4-16.841a406.617,406.617,0,0,1-42.413-24.12c-7.469-4.913-14.525-10.005-20.974-15.135A225.41,225.41,0,0,1,30.554-2085a177.388,177.388,0,0,1-17.013-19.742A144.179,144.179,0,0,1,0-2127H438.1a152.633,152.633,0,0,1,13.753,22.136,88.5,88.5,0,0,1,8.1,23.564,72.169,72.169,0,0,1,1.2,12.464,71.784,71.784,0,0,1-1.1,13,80.687,80.687,0,0,1-3.684,13.592A100.488,100.488,0,0,1,449.806-2028c-25.695,46.251-33.24,104.62-19.221,148.7,8.825,27.75,25.638,48.255,48.622,59.3,16.729,8.038,29.533,14.058,41.978,18.35a132.356,132.356,0,0,0,19.251,5.167,109.224,109.224,0,0,0,20.062,1.833c31.254,0,69.948-12.715,138.009-45.351,22.048-10.573,40.884-15.712,57.583-15.712a73.76,73.76,0,0,1,19.859,2.635,80.713,80.713,0,0,1,17.2,7.038c10.823,5.872,20.514,13.743,30.774,22.075l.353.286.037.03c1.784,1.448,3.629,2.946,5.492,4.44,5.087,4.079,11.2,8.862,17.925,13.4a143.49,143.49,0,0,0,20.591,11.693c16.75,7.676,34.71,11.407,54.907,11.407a202.915,202.915,0,0,0,36.583-3.6,507.187,507.187,0,0,0,123.537-39.7c5.9-2.774,11.847-5.709,17.663-8.724v603.016c-6.335-5.989-12.72-11.7-18.979-16.989-45.563-38.467-88.971-57.971-129.018-57.971a122.033,122.033,0,0,0-16.169,1.073,120.478,120.478,0,0,0-16.271,3.343,126.109,126.109,0,0,0-16.327,5.8A139.046,139.046,0,0,0,887.906-1288c-24.024,14.478-45.805,27.5-69.106,40.3a791.251,791.251,0,0,1-76.63,37.344c-13.915,5.8-27.8,10.98-41.278,15.4-14.521,4.766-29.1,8.828-43.33,12.073A434.522,434.522,0,0,1,612.126-1175a407.439,407.439,0,0,1-47.6,2.819H564.5Z"
              transform="translate(819.494 2127)"/>
        <path id="Tracé_85" data-name="Tracé 85" class="cls-43"
              d="M1852.3,946.6c0-107.4,9.8-204.9,25.7-276.9a506.485,506.485,0,0,1-98.8,28.9c-150,27.7-132-115.7-261.3-53.7s-152.7,52-219.3,20-69.4-136-29.4-208A97.336,97.336,0,0,0,1277,439c-49.1,19.5-124.4,31.9-208.8,31.9-45.8,0-88.9-3.7-126.6-10.1,13.9,6.6,26.3,11.9,35.7,16.1,58,26,54,82,60,146s110,68,134,94.5,2,86.4-104,160.8-90,288.7,129.3,390.7,384.7,4,510.8-72c59-35.6,118.8-15.5,169.2,20C1861.5,1145.7,1852.3,1050.8,1852.3,946.6Z"
              transform="translate(0 -358)"/>
        <path id="Tracé_86" data-name="Tracé 86" class="cls-44"
              d="M1781.3,740.9l-12.1-7h0L1442.9,545.7,1104.5,740.9l.7.3-.7.4v390.3L1442.9,1327l338.4-195.1V741.6l-.6-.4Z"
              transform="translate(0 -358)"/>
        <path id="Tracé_87" data-name="Tracé 87" class="cls-45"
              d="M1663.9,808.7l-7.9-4.6h0L1442.9,681.3,1222,808.7l.4.2-.4.3V1064l220.9,127.5,221-127.5V809.2l-.4-.3Z"
              transform="translate(0 -358)"/>
    </g>
</svg>
