<svg id="logo-blue" xmlns="http://www.w3.org/2000/svg" viewBox="0 0 300 300">
    <style type="text/css">
        #logo-blue .st0{fill:url(#SVGID_1_);}
        #logo-blue .st1{fill:url(#SVGID_2_);}
        #logo-blue .st2{fill:url(#SVGID_3_);}
    </style>
    <g>
        <linearGradient id="SVGID_1_" gradientUnits="userSpaceOnUse" x1="190.1215" y1="110.704" x2="190.1215"
                        y2="132.1789">
            <stop offset="0" style="stop-color:#3D64C2"/>
            <stop offset="1" style="stop-color:#3D68DE"/>
        </linearGradient>
        <path class="st0" d="M193.3,130.7c2,0.5,3.8,1,5.7,1.5c0.2-1.3,0.2-2.7,0.2-4c0-9.7-4-17.5-9-17.5c-4.5,0-8.3,6.5-9,15
            C184.8,127.5,188.8,129.3,193.3,130.7z"/>
        <linearGradient id="SVGID_2_" gradientUnits="userSpaceOnUse" x1="112.712" y1="110.704" x2="112.712"
                        y2="132.1789">
            <stop offset="0" style="stop-color:#3D64C2"/>
            <stop offset="1" style="stop-color:#3D68DE"/>
        </linearGradient>
        <path class="st1" d="M115.9,130.7c2,0.5,3.8,1,5.7,1.5c0.2-1.3,0.2-2.7,0.2-4c0-9.7-4-17.5-9-17.5c-4.5,0-8.3,6.5-9,15
            C107.4,127.5,111.4,129.3,115.9,130.7z"/>
        <linearGradient id="SVGID_3_" gradientUnits="userSpaceOnUse" x1="151.5" y1="47.944" x2="151.5" y2="238">
            <stop offset="0" style="stop-color:#3D64C2"/>
            <stop offset="1" style="stop-color:#3D68DE"/>
        </linearGradient>
        <path class="st2" d="M295,137.8c-0.2-5.8-13.8-12.7-25.5-5.8c-11.5,6.8-17.1,21.8-16.8,31c0.5,16.6-5.8,29.3-24.8,17.8
            s-1.8-27.8,2-39.3c1.3-2.7,2.5-5.3,3.5-8.2l0,0l0,0c1.8-5.7,2.8-11.5,2.8-17.6c0-9.8-2.7-19-7.2-27.5c0.2-0.3,0.3-0.5,0.5-0.8
            c5-8.7,0.5-24.3-9.8-30.3c-8.3-4.8-18.1-4.3-24.1,0.7c-12.8-6.3-28-9.8-44.1-9.8l0,0l0,0c-16.1,0-31.3,3.7-44.1,9.8
            c-6.2-5-15.8-5.5-24.1-0.7c-10.3,6-14.8,21.6-9.8,30.3c0.2,0.3,0.3,0.7,0.5,0.8c-4.7,8.3-7.2,17.6-7.2,27.3c0,6.2,1,12,2.8,17.6
            l0,0l0,0c1,2.8,2.2,5.5,3.5,8.2c3.8,11.7,21,28,2,39.3s-25.3-1.2-24.8-17.6c0.3-9.2-5.3-24.1-16.8-31C22,125.2,8.2,132,8,137.8
            s20.1,1.8,15.6,23.6c-1,5.2-4.3,17.3-5.5,23c-2.8,13.3,0.8,24.3,8.8,33c4.5,4.7,11,9.2,19.6,13.3c1.7,0.8,3.3,1.5,5,2.2
            c4.3,1.5,8.8,2.8,13.7,3.8c28.6,5.2,56.4-7,84.1-7c28.5,0,60.1,12.7,90.6,6.5c4.2-1,8.3-2.2,12.2-3.5c1.5-0.5,3-1.2,4.5-1.8
            c8.2-3.8,14.2-8,18.6-12.2c8.7-8.8,12.8-20.3,9.8-34.1c-1.2-5.7-4.5-17.8-5.5-23C274.9,139.5,295.2,143.7,295,137.8z M95.7,77.1
            c-2.3,1.3-7.2,4.3-9.5,5c-5,1.5-7.7,0.3-9.5-2.8c-2.7-4.7,1.3-14,8.5-18.1c7.2-4.2,15.1-3.7,18,1C105.9,66.8,102.9,72.9,95.7,77.1z
            M112.7,151c-6.7,0-12-10.2-12-22.8s5.3-22.8,12-22.8c6.7,0,12,10.2,12,22.8C124.7,140.7,119.4,151,112.7,151z M151.5,175.5
            c-9.3,0-17-4.5-17-9.8s7.7-3.5,17-3.5c9.3,0,17-2,17,3.5C168.5,171.1,160.8,175.5,151.5,175.5z M190.3,151c-6.7,0-12-10.2-12-22.8
            s5.3-22.8,12-22.8c6.7,0,12,10.2,12,22.8C202.3,140.7,196.9,151,190.3,151z M207.3,77.1c-7.2-4.2-10.2-10.3-7.5-15
            c2.7-4.7,10.8-5.2,18-1s11.2,13.5,8.5,18.1c-1.8,3.2-4.5,4.3-9.5,2.8C214.4,81.4,209.6,78.4,207.3,77.1z"/>
    </g>
</svg>
